<svg xmlns="http://www.w3.org/2000/svg" width="11" height="11" viewBox="0 0 11 11"><defs><clipPath id="foxba"><path fill="#fff" d="M5.434.1c2.903 0 5.256 2.44 5.256 5.45 0 3.01-2.353 5.45-5.256 5.45S.178 8.56.178 5.55C.178 2.54 2.531.1 5.434.1z"/></clipPath></defs><g><g><path fill="#fff" d="M5.434.1c2.903 0 5.256 2.44 5.256 5.45 0 3.01-2.353 5.45-5.256 5.45S.178 8.56.178 5.55C.178 2.54 2.531.1 5.434.1z"/><path fill="none" stroke="#000" stroke-miterlimit="20" stroke-width="2" d="M5.434.1c2.903 0 5.256 2.44 5.256 5.45 0 3.01-2.353 5.45-5.256 5.45S.178 8.56.178 5.55C.178 2.54 2.531.1 5.434.1z" clip-path="url(&quot;#foxba&quot;)"/></g></g></svg>