<svg width="30" height="30" viewBox="0 0 30 30" fill="none" xmlns="http://www.w3.org/2000/svg">
<path d="M-9.01547e-07 9.375L-4.09794e-07 20.625C-1.83506e-07 25.8019 4.19812 30 9.375 30L20.625 30C25.8019 30 30 25.8019 30 20.625L30 9.375C30 4.19813 25.8019 7.79513e-07 20.625 1.0058e-06L9.375 1.49755e-06C4.19812 1.72384e-06 -1.12784e-06 4.19813 -9.01547e-07 9.375ZM20.625 2.8125C24.2437 2.8125 27.1875 5.75625 27.1875 9.375L27.1875 20.625C27.1875 24.2437 24.2437 27.1875 20.625 27.1875L9.375 27.1875C5.75625 27.1875 2.8125 24.2437 2.8125 20.625L2.8125 9.375C2.8125 5.75625 5.75625 2.8125 9.375 2.8125L20.625 2.8125Z" fill="black"/>
</svg>
