<svg xmlns="http://www.w3.org/2000/svg" width="24" height="24" viewBox="0 0 24 24"><g><g><path fill="#00cfae" d="M22.676 0H1.322C.593 0-.001.592-.001 1.324v21.352C0 23.408.593 24 1.322 24h11.496v-9.305H9.68v-3.61h3.14V8.413c0-3.1 1.893-4.78 4.658-4.78 1.325 0 2.464.09 2.794.134v3.241h-1.919c-1.5 0-1.784.714-1.784 1.763v2.314h3.577l-.466 3.61h-3.11V24h6.106c.73 0 1.325-.592 1.325-1.324V1.324C24 .592 23.406 0 22.676 0z"/><path fill="#fff" d="M22.676 0H1.322C.593 0-.001.592-.001 1.324v21.352C0 23.408.593 24 1.322 24h11.496v-9.305H9.68v-3.61h3.14V8.413c0-3.1 1.893-4.78 4.658-4.78 1.325 0 2.464.09 2.794.134v3.241h-1.919c-1.5 0-1.784.714-1.784 1.763v2.314h3.577l-.466 3.61h-3.11V24h6.106c.73 0 1.325-.592 1.325-1.324V1.324C24 .592 23.406 0 22.676 0z"/></g></g></svg>